PathFileType        4      (X/Y/Z)      C:\Users\pc\Desktop\IMUTRC\Sujet_08\Sujet_08_velo_100.trc         
DataRate	CameraRate	NumFrames	NumMarkers	Units	OrigDataRate	OrigDataStartFrame	OrigNumFrames
60.0	60.0	4	64	mm	60.0	350	932
Frame#	Time	pHipOrigin			pRightASI			pLeftASI			pRightCSI			pLeftCSI			pRightIschialTub			pLeftIschialTub			pSacrum			pL5SpinalProcess			pL3SpinalProcess			pT12SpinalProcess			pIJ			pT4SpinalProcess			pT8SpinalProcess			pPX			pC7SpinalProcess			pTopOfHead			pRightAuricularis			pLeftAuricularis			pBackOfHead			pRightAcromion			pLeftAcromion			pRightArmLatEpicondyle			pRightArmMedEpicondyle			pLeftArmLatEpicondyle			pLeftArmMedEpicondyle			pRightUlnarStyloid			pRightRadialStyloid			pRightOlecranon			pLeftUlnarStyloid			pLeftRadialStyloid			pLeftOlecranon			pRightTopOfHand			pRightPinky			pRightBallHand			pLeftTopOfHand			pLeftPinky			pLeftBallHand			pRightGreaterTrochanter			pRightKneeLatEpicondyle			pRightKneeMedEpicondyle			pRightPatella			pLeftGreaterTrochanter			pLeftKneeLatEpicondyle			pLeftKneeMedEpicondyle			pLeftPatella			pRightTibialTub			pRightLatMalleolus			pRightMedMalleolus			pLeftTibialTub			pLeftLatMalleolus			pLeftMedMalleolus			pRightHeelFoot			pRightFirstMetatarsal			pRightFifthMetatarsal			pRightPivotFoot			pRightHeelCenter			pRightToe			pLeftHeelFoot			pLeftFirstMetatarsal			pLeftFifthMetatarsal			pLeftPivotFoot			pLeftHeelCenter			pLeftToe			
		X1	Y1	Z1	X2	Y2	Z2	X3	Y3	Z3	X4	Y4	Z4	X5	Y5	Z5	X6	Y6	Z6	X7	Y7	Z7	X8	Y8	Z8	X9	Y9	Z9	X10	Y10	Z10	X11	Y11	Z11	X12	Y12	Z12	X13	Y13	Z13	X14	Y14	Z14	X15	Y15	Z15	X16	Y16	Z16	X17	Y17	Z17	X18	Y18	Z18	X19	Y19	Z19	X20	Y20	Z20	X21	Y21	Z21	X22	Y22	Z22	X23	Y23	Z23	X24	Y24	Z24	X25	Y25	Z25	X26	Y26	Z26	X27	Y27	Z27	X28	Y28	Z28	X29	Y29	Z29	X30	Y30	Z30	X31	Y31	Z31	X32	Y32	Z32	X33	Y33	Z33	X34	Y34	Z34	X35	Y35	Z35	X36	Y36	Z36	X37	Y37	Z37	X38	Y38	Z38	X39	Y39	Z39	X40	Y40	Z40	X41	Y41	Z41	X42	Y42	Z42	X43	Y43	Z43	X44	Y44	Z44	X45	Y45	Z45	X46	Y46	Z46	X47	Y47	Z47	X48	Y48	Z48	X49	Y49	Z49	X50	Y50	Z50	X51	Y51	Z51	X52	Y52	Z52	X53	Y53	Z53	X54	Y54	Z54	X55	Y55	Z55	X56	Y56	Z56	X57	Y57	Z57	X58	Y58	Z58	X59	Y59	Z59	X60	Y60	Z60	X61	Y61	Z61	X62	Y62	Z62	X63	Y63	Z63	X64	Y64	Z64	
350	5.817	0.0	1249.97582	7.653894434872941E-14	85.38243268834009	1316.22325	139.56271176861102	101.75254543160179	1322.84799	-124.28043228780786	67.46049866700235	1392.97331	116.9310651503705	81.02445084327643	1398.30542	-100.33177266237084	-73.00960913667714	1214.42842	49.05222953630993	-66.22764009270037	1217.17527	-59.57918875377657	-54.69131752676774	1291.17849	-2.4406041717714464	12.147254415787241	1371.16014	5.130517772802103	83.1800972040559	1461.64442	8.205850080571434	147.86756985490183	1544.5345	9.54252960497548	396.4820954498082	1576.36558	-3.9507389022823136	288.4537224023472	1671.53566	6.647419446652822	220.19514220975037	1619.66877	9.063872452782434	306.2507962729261	1501.71604	-0.988196841483806	333.8446582260557	1704.65937	6.346302634808174	578.4402827410097	1762.98942	-36.04132052454833	509.169255411603	1716.7778	45.25580587824327	476.83906023451925	1732.77413	-84.38272850526734	473.5829942776742	1772.84575	-8.86115574759848	346.1538691341723	1640.18932	158.83943708159435	322.3279957494545	1650.20722	-154.1297755472615	456.50551669780805	1377.30014	152.51092927614553	436.30333957519105	1370.02908	94.63953611961861	408.3513015297531	1381.01646	-197.32445595695734	403.6769359627079	1370.51382	-136.70320069233892	559.2997254284372	1148.82731	135.8333639009531	601.9151008888908	1172.0947	118.22749939396918	424.209640621134	1364.85855	134.6922385870232	521.9295051965853	1153.18995	-185.12607486897818	566.6887128638448	1179.0426	-182.16058882139075	382.25520032121625	1365.82803	-170.49765802555478	733.0531453287073	1075.63198	217.08628076714697	645.0260365053823	1077.0862	186.25178404788392	602.732930275435	1121.35887	139.37362314960126	668.7982486056081	1063.51355	-295.8060781612675	594.4412284801932	1071.59251	-239.8692468780788	564.6785155429195	1125.39834	-193.33903937714518	20.55813950333058	1236.08002	160.25850517380638	395.48444712563156	1106.17043	149.82127142492953	400.58581758472826	1109.07886	73.10604582104857	409.414885729454	1149.15047	111.09886186447436	13.199075258883383	1219.76053	-158.50958655855743	202.07250393999925	871.88076	-131.22225363290238	212.28261503560265	876.40497	-55.15846460711738	243.7255310063867	896.92551	-96.90399711351039	423.84707531245397	1061.5746	113.50628438566751	177.88712394916485	771.70172	149.47594780674174	180.63652165737437	768.14698	89.13778905596618	255.09457263597835	836.97967	-94.11388602699208	136.54428854905103	476.98147	-140.8577454173209	137.1255095556341	473.91146	-80.46691290483182	104.9637798644699	723.87431	118.23756177117664	234.22113210030597	642.43845	76.30674977920582	235.35421048925494	639.04529	150.87086843093329	252.57543612957792	629.35055	111.74585446600697	137.65539523995793	706.10061	116.98307229001075	319.07693360111733	585.72419	108.90967254574169	63.159272020272354	428.023	-109.20557320138948	193.21950094014338	349.49557	-64.61559677180676	194.96176309980243	344.64819	-139.08720998352874	212.06116800821815	335.92292	-99.63885175890108	96.12970791123621	410.73404	-107.27312960758348	279.1800604560234	293.42762	-95.41825794039009	
351	5.833	0.0	1249.97582	7.653894434872941E-14	86.31718728609845	1317.03114	138.44871461853853	101.07391826901234	1321.87851	-125.48265121907446	68.25156119706388	1393.61963	115.4855813835531	80.55354692463331	1397.49753	-101.78154651587577	-72.82609181856438	1214.91316	49.839001979683935	-66.62316431357087	1216.85211	-58.85644748665204	-54.567547726093004	1291.34007	-2.3367489776743886	12.295223714419404	1371.16014	4.200053261731259	83.49596449621842	1461.48285	6.572544820633202	148.51493142425372	1544.37292	7.765538705216509	397.089625340868	1575.23452	-6.183007968225968	289.5364462987377	1670.88934	4.602957785509477	221.05023468349302	1619.18403	7.039333058661228	306.7544645420128	1500.90814	-3.096688446308257	334.9074675158685	1703.6899	4.074215978893069	579.6866157768114	1761.69679	-37.52664239753393	510.04426372449154	1715.64675	43.458905567214394	478.3969781362405	1731.64308	-86.2393827616104	474.91327309630304	1771.71469	-10.69789416479552	347.0089539474705	1639.38142	156.81489125959706	323.5145889282626	1649.07617	-156.2980082416479	457.13297008845836	1376.49225	150.5063057211703	437.5937802876517	1369.54434	92.34752719668137	409.1224405602241	1379.88541	-198.99758523474316	404.09665844896745	1369.38277	-138.46027575295184	560.526142625093	1148.34257	134.12040294487525	603.3691507407627	1171.77154	116.49463025918975	425.16858705640533	1364.21223	132.54391530390674	523.09189244956	1152.22047	-186.25998019775227	567.7273290835764	1178.23471	-183.39836343258244	382.9025618905681	1364.53539	-172.27464892531376	734.2354484208278	1075.63198	216.18001452146518	646.2922853803302	1076.92462	184.9941012579907	603.9792633112368	1121.03571	137.88830127661572	670.2281066199671	1062.3825	-296.50462116300304	595.6235380001899	1070.62303	-240.77552078420493	565.9646802570132	1124.42887	-194.369083083946	22.15159899665626	1238.5037	160.1190955323526	398.0169448755271	1111.66412	147.30590584514312	402.1878431631084	1112.95675	70.44270451475388	411.1648870343424	1153.99784	107.50504838666431	11.833240760329488	1218.62948	-158.39009152368132	204.0173799775364	872.36549	-131.27771749152902	215.36568648860137	877.85918	-55.31350766147405	245.94215380367518	898.21815	-97.78606386123468	429.4626445153481	1068.03777	110.8358757515244	204.39696423832078	761.52224	147.0419465629367	207.49778615118623	758.12908	86.78774002286436	255.0149028515182	835.68704	-95.02443469891692	114.1362060051588	483.44463	-140.04419968958817	115.524121722138	480.37463	-79.60925307256399	135.2196930167555	708.36272	115.36113087248457	270.0840483704313	636.78318	73.28384191121152	270.9894876762879	632.90529	147.86787640208505	289.0173939386865	624.66475	108.78697777426214	169.04948971938455	693.01271	114.00706342815691	358.4981076691276	586.04735	105.9195226003149	38.662621371146116	438.20248	-108.66805023177507	164.61401112958447	352.08083	-66.47116067806573	165.54959266716793	348.52609	-140.98688922689112	182.5053042753185	338.18503	-101.87003170732895	70.66275341230268	419.29773	-107.33886053066198	247.2283185177689	292.13499	-98.81610756803563	
352	5.85	0.0	1249.97582	7.653894434872941E-14	87.1679896731536	1317.67746	137.68614167312197	100.31133766315136	1321.39378	-126.33346003400568	69.082447744973	1394.10437	114.4953693550442	79.87491333416777	1397.17437	-102.98375778669795	-72.43484359606087	1215.07474	50.3782259286957	-67.03861080146348	1216.52895	-58.36133764217538	-54.67140934806615	1291.34007	-2.2129715165552275	12.359253658100531	1371.16014	3.6209976344274635	83.64394145529502	1461.48285	5.642086737438452	148.85071455556226	1544.21134	6.359872528370582	397.3855780264529	1574.58821	-8.043938222935981	290.0600380674149	1670.40461	2.722111691653441	221.48987300889863	1619.02246	5.509897081140579	306.84270041152746	1500.42341	-4.7100714392243725	335.5548290852205	1703.20516	2.2972250791340705	580.4776706464286	1761.05047	-38.97213259222742	510.4839020498972	1715.00043	41.929469589693745	479.16812482715596	1730.83518	-87.91250561152019	475.56064232609936	1771.06838	-12.474878636678374	347.3248148117569	1639.21984	155.18159366010323	323.830449792549	1648.10669	-157.9313058411417	457.5726084138639	1376.33067	148.97686974364964	438.2610576961496	1369.54434	90.7981753800147	409.47814719112307	1379.07751	-200.17560590062064	404.45236507986647	1368.73645	-139.63829641882938	561.6885298780676	1148.50415	132.98649761610116	604.4276827996403	1171.93312	115.48449473109038	425.83586446490324	1364.05066	130.9945634872401	524.1703403475834	1151.89731	-187.04247664275925	568.7858547145778	1178.07313	-184.4084913002373	383.38203832214185	1363.88908	-173.34881439709417	735.229944108148	1076.2783	215.74894228111407	647.2668716563805	1077.40935	184.33538227410287	605.1615651707889	1121.35887	136.9820209426134	671.3264626966923	1062.05934	-297.0594849527938	596.9495267321313	1070.1383	-241.35029275269736	567.0431281550368	1124.26729	-195.15157952895305	23.28979441211783	1239.3116	160.01951633662256	398.5007049659122	1110.53307	144.9697815851024	401.8649149709735	1111.0178	68.06245848973366	411.38117636334323	1152.38205	104.73356179958505	11.150331171496973	1217.98316	-158.3303375783672	210.78248668953927	876.08181	-131.29614100134506	222.56614909976676	882.06024	-55.59939427223	252.31601995361896	902.74236	-98.3437048921864	432.574190232103	1068.5225	108.38453368754294	228.91782081328054	747.46486	145.47009622770994	232.24628180923833	744.23328	85.1959738484916	258.9686989585942	837.78757	-95.71441927604228	95.47418989652013	495.2399	-139.67307595629805	97.44115481292704	492.00832	-79.17409173514832	162.8876369000746	689.78112	113.05518308816566	301.8295593940694	626.92686	70.39177883218487	303.1902768661107	622.40264	144.93598164476631	321.5496838335747	615.61632	105.71138971667826	197.62799759551734	676.53164	111.62145871513007	393.2868661279168	581.19998	102.41714472862297	17.892113657683005	454.03724	-108.80059476757168	138.98773757792728	360.32136	-68.35799783800664	139.69566594409787	357.89768	-142.8538093151177	155.94855212426992	346.10241	-103.9048369333337	48.71423269340649	433.35511	-107.82710526948148	218.0679854336159	296.33605	-101.77003644403246	
353	5.867	0.0	1249.97582	7.653894434872941E-14	87.60335200019219	1317.67746	137.41867091173762	99.5885963960268	1321.87851	-126.72898425487617	69.18630936694613	1394.10437	114.37159189392504	79.06822505164776	1397.49753	-103.02787955167749	-72.06351121270338	1214.75158	50.689810794615155	-67.24633404540977	1216.52895	-58.11378271993705	-54.75535513089329	1291.17849	-1.861554972343753	12.255392036127379	1371.16014	3.7447750955466286	83.3963865330567	1461.64442	5.434363493492147	148.47938983264922	1544.37292	6.048294090327227	397.2020530478957	1574.58821	-8.83071709418606	289.8765130888577	1670.56618	1.9353328204033347	221.20249406881268	1619.18403	4.846902098885735	306.55530738312103	1500.58498	-5.373065188910908	335.3513882675172	1703.36674	1.2828071247916646	580.4179231289904	1760.72732	-39.65504984150437	510.1765996102208	1714.83885	41.03882909647049	479.19232309254505	1730.6736	-88.94683940500856	475.3572015083962	1770.9068	-13.48929659102078	347.1412974936442	1639.86616	154.39482121672924	323.2955159302248	1647.78353	-158.80202406734287	457.88419327978335	1377.13856	148.60553736029215	438.46878094009594	1370.02908	90.55062045777638	409.72569445291697	1378.91593	-199.96788908455042	404.82368980277954	1368.73645	-139.32671798078601	562.4752946609972	1149.47363	132.80297387011234	605.0906701214507	1173.06417	115.1971093631284	426.02367186970355	1364.69697	130.51936948190942	525.1008060912226	1152.22047	-186.89449325580657	569.7163127977726	1178.55786	-184.2605143411607	383.6295932443802	1363.7275	-173.14109115314787	735.9327695361267	1077.57093	215.91682741889232	648.0735599389005	1078.54041	184.3795040390824	605.8444759921897	1122.32834	136.92228108561974	672.4845675234237	1062.54408	-296.93141740498714	597.9838540977435	1070.62303	-241.32608682686381	568.0774478602046	1124.75203	-195.12738003099557	23.621295117183294	1237.53423	159.8758230363574	396.0052552252718	1101.48464	142.66492291829928	399.3893810694791	1102.93885	65.98523890602284	409.7521611900925	1143.65678	103.15572805871786	12.288518926514115	1218.62948	-158.42992320197337	222.59545030334795	883.19129	-131.29742468060766	233.9238409752669	889.3313	-55.56085393364502	263.2383495020805	911.14447	-98.03769379221704	433.4491985449916	1062.05934	106.587633376514	250.5988784312368	728.88326	145.52298506736693	254.05110922786932	725.4901	85.35271788224566	267.2874270577546	843.11968	-96.3275229330523	80.84990924990848	512.52887	-140.34334568390037	83.14836721093643	508.81255	-79.9880611908919	187.30034942681812	668.12953	112.86908309063885	328.71073206658286	612.54632	68.26936245429927	330.734450948755	606.89105	142.52617866635038	349.19771953819225	601.72052	103.17780927714315	222.57991998295213	656.49583	111.0441117276681	422.5724690025191	570.69734	98.93746759768243	1.510756717890061	476.33515	-109.89060106975413	116.58821469121345	375.18664	-70.06837611467044	117.27624130655856	373.40927	-144.79182790744213	132.72243277633447	360.15979	-105.88696963019324	31.050994698331216	453.71408	-109.1490266531232	191.8228181484867	307.00027	-104.17617405339469	
